<?xml version="1.0" encoding="utf-8"?>
<!-- Generator: Adobe Illustrator 17.0.0, SVG Export Plug-In . SVG Version: 6.00 Build 0)  -->
<!DOCTYPE svg PUBLIC "-//W3C//DTD SVG 1.1//EN" "http://www.w3.org/Graphics/SVG/1.1/DTD/svg11.dtd">
<svg version="1.1" id="Layer_1" xmlns="http://www.w3.org/2000/svg" xmlns:xlink="http://www.w3.org/1999/xlink" x="0px" y="0px"
	 width="841.68px" height="418.557px" viewBox="0 0 841.68 418.557" enable-background="new 0 0 841.68 418.557"
	 xml:space="preserve">
<g>
	<path fill="#A5CF4F" d="M126.834,81.959c108.559-31.931,203.767-21.436,285.878,30.203
		c-113.482-7.616-202.786,11.676-267.901,57.874C86.213,203.447,41.043,261.949,6.91,346.785l0,0l3.743-41.846
		c44.279-85.96,100.522-143.975,168.725-174.041c47.367-20.607,90.989-32.127,130.864-34.558
		C249.51,81.609,185.49,83.561,113.885,110.625L126.834,81.959z"/>
	<path fill="#003262" d="M94.869,259.963c6.702-25.469,15.662-50.089,26.948-73.907c5.346-11.282,11.291-22.192,17.905-32.743
		c3.537-5.642,7.457-11.049,11.313-16.485c11.265-15.879,24.028-30.471,37.683-44.343c9.105-9.25,18.708-17.911,28.996-25.768
		c9.657-7.376,19.536-14.473,29.76-21.07c16.914-10.913,34.509-20.594,52.665-29.268c3.111-1.486,9.39-4.343,9.39-4.343l2.168-0.876
		l2.578-0.399c0,0,3.708-0.385,5.566-0.5c9.793-0.606,19.594-0.915,29.407-0.67c0.211,0.277,0.017,2.631-0.483,3.173
		c-16.203,5.386-32.003,11.778-47.427,19.09c-17.93,8.5-35.251,18.114-51.446,29.589c-9.03,6.398-17.949,12.994-26.336,20.257
		c-3.48,3.014-7.141,5.823-10.565,8.897c-11.184,10.044-21.586,20.863-31.093,32.502c-8.378,10.256-16.096,21.014-23.323,32.116
		c-3.26,5.009-6.671,9.916-9.642,15.118c-11.26,19.719-20.646,40.285-28.164,61.708c-6.174,17.591-11.11,35.523-14.932,53.772
		c-2.231,10.653-4.114,21.366-5.595,32.141c-1.072,7.801-2.634,23.483-2.634,23.483l-1.842,29.346c0,0-0.807,32.002-1.013,36.409
		c0,0.61,0,0.493,0,1.339c-0.904-0.381-9.473-16.667-12.719-24.558c-7.065-17.173-12.531-34.842-16.431-52.997
		c-2.08-9.684-3.681-19.444-4.861-29.279c-0.795-6.622-1.339-13.259-1.805-19.911c-0.665-9.505-0.586-19.012-0.542-28.524
		c0.017-3.823-0.152-7.652,0.025-11.466c0.255-5.481,0.453-10.993,1.203-16.418c1.704-12.319,5.446-36.913,5.446-36.913
		s6.752-30.815,11.44-45.898c4.432-14.258,15.699-41.868,15.699-41.868l1.127-2.463c0,0,33.108-16.278,33.498-16.278
		c-2.455,5.346-10.382,23.009-11.567,25.593c-7.543,16.439-12.954,33.624-17.817,50.995c-2.721,9.722-5.143,19.527-6.874,29.476
		c-1.461,8.394-2.632,16.839-3.926,25.262c-0.505,3.289-1.036,6.576-1.481,9.873c-0.354,2.622-0.657,5.253-0.874,7.889
		c-0.813,9.872-1.352,19.753-1.475,29.665c-0.088,7.063,0.023,14.118,0.269,21.168c0.236,6.758,2.071,21.04,2.147,21.04
		C85.31,302.92,91.402,273.143,94.869,259.963z"/>
	<path fill="#003262" d="M232.425,345.481c-8.383,0.032-25.644,0-25.644,0s0.91-2.024,1.313-2.869
		c2.574-5.397,5.185-10.775,7.78-16.162c12.207-25.341,24.413-50.682,36.618-76.024c8.335-17.307,16.667-34.615,25.005-51.92
		c0.464-0.963,0.975-1.904,1.491-2.908c2.521,0,28.377-0.049,31.046-0.049c24.149,49.616,48.376,99.175,72.448,148.81
		c0.109,0.224,0.438,0.857,0.534,1.121c-2.182,0-21.336,0-25.013,0c-0.299-0.588-21.456-43.549-22.474-45.592
		c-0.741,0-80.075,0-81.548,0c-3.789,7.67-7.271,15.333-10.882,22.933C239.526,330.342,236.044,337.793,232.425,345.481z
		 M294.944,211.711c-0.603,0.473-1.243,1.794-1.676,2.74c-7.71,16.842-15.396,33.696-23.086,50.547
		c-2.808,6.152-5.624,12.3-8.411,18.461c-0.342,0.755-0.724,1.696-1.057,2.636c1.99,0,62.602,0,66.475,0c0.36,0,0.928,0,1.394,0
		c-0.394-0.946-29.121-65.398-31.958-71.644C296.279,213.69,295.703,212.077,294.944,211.711z"/>
	<path fill="#003262" d="M667.429,236.37c-2.35,0-18.814,0-26.649,0c-0.56,0-1.074,0-1.679,0c-0.197-1.254-0.447-2.707-0.604-3.868
		c-0.822-6.118-3.792-11.06-8.321-15.126c-4.947-4.442-10.847-7.004-17.269-8.372c-6.549-1.395-13.176-1.84-19.883-1.48
		c-5.801,0.312-11.518,1.008-17.116,2.571c-6.495,1.814-12.468,4.665-17.713,8.96c-6.304,5.164-10.683,11.695-13.588,19.243
		c-2.265,5.884-3.567,11.997-4.29,18.263c-0.757,6.558-0.819,13.13-0.385,19.682c0.647,9.759,2.747,19.193,7.323,27.956
		c6.277,12.022,15.845,20.277,28.53,24.964c6.479,2.394,13.193,3.687,20.067,4.257c15.01,1.244,29.765-0.184,44.258-4.225
		c5.393-1.504,10.512-3.764,15.596-6.091c0.874-0.4,1.764-0.765,2.672-1.157c0.077,2.196,0.2,11.48,0.281,17.184
		c-0.363,0.146-0.722,0.24-1.163,0.345c-7.05,1.69-14.083,3.468-21.169,4.99c-5.751,1.235-11.61,1.833-17.477,2.308
		c-10.082,0.816-20.174,1.093-30.272,0.47c-11.419-0.705-22.571-2.781-33.175-7.217c-15.425-6.452-27.111-17.011-34.735-31.97
		c-4.093-8.03-6.526-16.547-7.784-25.452c-0.922-6.531-1.259-13.081-0.962-19.653c0.455-10.058,2.216-19.852,6.296-29.142
		c6.053-13.779,15.998-23.797,29.41-30.447c7.968-3.951,16.441-6.318,25.18-7.811c11.176-1.909,22.441-2.201,33.725-1.63
		c8.435,0.427,16.784,1.613,24.909,4.04c8.438,2.52,16.328,6.127,23.121,11.862c6.008,5.073,10.373,11.205,12.087,18.999
		C667.154,231.115,667.547,233.849,667.429,236.37z"/>
	<path fill="#003262" d="M448.929,195.491c8.39-0.038,17.219-0.017,25.561-0.017c0,0.844-0.008,1.376,0,1.934
		c0.03,2.059,0,4.119,0,6.178c0.001,46.68,0.009,93.36-0.021,140.04c-0.002,2.637-0.153,5.295-0.51,7.906
		c-1.177,8.592-5.621,15.125-12.899,19.751c-3.834,2.437-8.04,4.069-12.381,5.331c-5.377,1.563-10.881,2.484-16.442,3.107
		c-8.787,0.985-17.605,1.287-26.43,1.001c-4.005-0.13-7.998-0.722-11.988-1.182c-2.627-0.303-5.241-0.726-7.855-1.132
		c-0.759-0.118-1.5-0.259-2.427-0.488c-0.054-4.881,0.005-9.913,0-14.879c1.116,0.189,1.82,0.364,2.552,0.497
		c6.495,1.563,13.088,2.589,19.731,3.101c8.626,0.665,17.244,0.522,25.723-1.576c3.469-0.858,6.67-2.278,9.546-4.404
		c4.878-3.607,7.447-8.467,7.788-14.509c0.061-1.076,0.047-2.156,0.047-3.235c0.001-47.857-0.002-95.714,0.005-143.571
		C448.93,198.191,448.929,197.007,448.929,195.491z"/>
	<path fill="#003262" d="M740.056,331.684c1.314,0.014,2.46,0,3.5,0c21.386,0.012,42.791-0.016,64.177-0.016
		c7.848,0,15.696-0.01,23.544,0.016c1.049,0.003,2.183,0,3.115,0c0,2.237,0,10.317,0,13.797c-0.601,0-0.879,0.015-1.463,0.014
		c-1.082-0.014-2.157-0.014-3.236-0.014c-37.081,0.002-74.163,0.004-111.244,0.002c-1.065,0-2.471,0.029-3.678-0.002
		c0-0.701,0.023-1.298,0-1.851c-0.052-1.273-0.031-2.55-0.031-3.825c-0.001-46.695,0.019-93.37,0.023-140.065
		c0-1.264,0.008-2.937,0.008-4.332c0.681,0,1.26,0.001,1.805,0c7.259-0.02,14.518-0.009,21.778,0.006
		c0.385,0.001,1.146-0.018,1.649-0.006c0,0.578,0,1.293,0,1.845c0,0.904,0,1.756,0,2.639c0.001,42.477,0.001,84.953,0.005,127.43
		C740.007,328.585,740.038,330.345,740.056,331.684z"/>
</g>
</svg>
